<?xml version="1.0" encoding="UTF-8" standalone="no"?>
<!DOCTYPE svg  PUBLIC '-//W3C//DTD SVG 1.1//EN'  'http://www.w3.org/Graphics/SVG/1.1/DTD/svg11.dtd'>
<svg xmlns="http://www.w3.org/2000/svg">
<defs>
<font id="Biko-Bold" horiz-adv-x="558">
<font-face underline-position="-50" font-weight="700" descent="-200" panose-1="2 0 0 0 0 0 0 0 0 0" units-per-em="1000" unicode-range="U+0020-2212" bbox="-96 -266 1024 951" x-height="458" underline-thickness="50" font-family="Biko" ascent="800" cap-height="712"/>
<missing-glyph horiz-adv-x="1000"/>
<glyph glyph-name=".notdef" horiz-adv-x="1000"/>
<glyph glyph-name=".null" horiz-adv-x="0"/>
<glyph glyph-name="nonmarkingreturn" horiz-adv-x="333"/>
<glyph glyph-name="space" horiz-adv-x="230" unicode=" "/>
<glyph glyph-name="exclam" horiz-adv-x="309" unicode="!" d="M221 187h-133v547h133v-547zM155 -10q-33 0 -56.5 23.5t-23.5 57.5q0 32 24 56q23 23 56 23t56 -23.5t23 -55.5q0 -34 -23 -57q-24 -24 -56 -24z"/>
<glyph glyph-name="quotedbl" horiz-adv-x="252" unicode='&quot;' d="M138 551v162h84v-162h-84zM30 551v162h84v-162h-84z"/>
<glyph glyph-name="numbersign" horiz-adv-x="487" unicode="#" d="M209 198h57l12 59h-57zM333 48h-97l11 55h-57l-11 -55h-97l11 55h-55l19 95h55l12 59h-56l19 96h56l10 55h98l-11 -55h57l11 55h97l-11 -55h55l-19 -96h-55l-12 -59h55l-19 -95h-55z"/>
<glyph glyph-name="dollar" horiz-adv-x="564" unicode="$" d="M219 437v140q-59 -23 -59 -76q0 -40 59 -64zM344 268v-144q23 10 37 24q23 23 23 50q0 35 -24 52q-12 9 -36 18zM344 -59h-125v48q-73 18 -126 71q-65 65 -65 150v25h133v-25q0 -53 58 -82v174q-88 28 -136 71q-27 25 -42 57q-13 32 -13 71q0 87 61 148q51 50 130 64v51 h125v-57q67 -22 112 -71q57 -66 57 -153v-25h-133v25q0 52 -36 79v-162q93 -29 137 -69q55 -49 55 -133q0 -76 -54 -135t-138 -76v-46z"/>
<glyph glyph-name="percent" horiz-adv-x="686" unicode="%" d="M132 582q0 -20 14 -33.5t33 -13.5t32.5 14t13.5 33t-13.5 32.5t-32.5 13.5t-34 -13q-13 -15 -13 -33zM283 684q44 -42 44 -103q0 -60 -44 -102t-104 -42q-61 0 -105 42.5t-44 101.5q0 60 43.5 102.5t105.5 42.5q60 0 104 -42zM461 134q0 -20 13.5 -33.5t33.5 -13.5 q19 0 32.5 14t13.5 33t-13.5 33t-32.5 14q-21 0 -33 -14q-14 -14 -14 -33zM612 237q44 -44 44 -103t-44 -103q-44 -42 -104 -42q-62 0 -105.5 42.5t-43.5 102.5t43.5 102.5t105.5 42.5q60 0 104 -42zM134 0l275 712h143l-274 -712h-144z"/>
<glyph glyph-name="ampersand" horiz-adv-x="807" unicode="&amp;" d="M266 590q-13 0 -23 -10v-1q-10 -9 -10 -23t13 -27l20 -20l23 23q10 10 10 24t-10 23q-11 11 -23 11zM264 321l-84 -85q-19 -19 -19 -46q0 -29 21 -50q20 -20 48 -20q29 0 49 20l83 83zM230 -10q-84 0 -142 58q-58 60 -58 142q0 83 58 141l85 85l-24 24q-48 50 -48 116 t49 117q47 47 116 47t116 -47l1 -1q47 -49 47 -116q0 -68 -47 -117l-22 -21l88 -88q5 15 5 29q-2 23 -9 42l-8 17l105 82l14 -27q27 -53 29 -112v-1v-1q0 -74 -38 -129l230 -230h-190l-132 133l-84 -85q-56 -58 -141 -58z"/>
<glyph glyph-name="quotesingle" horiz-adv-x="180" unicode="&apos;" d="M132 551h-84v162h84v-162z"/>
<glyph glyph-name="parenleft" horiz-adv-x="365" unicode="(" d="M330 -64h-25q-62 0 -116 43q-38 31 -74 95v1q-60 115 -60 278q0 162 60 277q31 59 74 96v1h1q53 42 115 42h25v-132h-25q-16 0 -35.5 -17t-36.5 -50q-46 -86 -46 -217q0 -132 46 -218q17 -33 36.5 -50.5t35.5 -17.5h25v-131z"/>
<glyph glyph-name="parenright" horiz-adv-x="365" unicode=")" d="M35 -64v131h26q15 0 35 17.5t37 49.5q46 90 46 219q0 128 -46 217q-17 33 -37 50t-35 17h-26v132h26q63 0 114 -42q43 -36 74 -97q61 -114 61 -277q0 -165 -61 -279q-32 -62 -74 -95q-51 -43 -114 -43h-26z"/>
<glyph glyph-name="asterisk" horiz-adv-x="205" unicode="*" d="M117 563h-30v40l-27 -28l-21 21l28 27h-40v30h40l-28 28l21 21l27 -28v39h30v-39l28 28l21 -21l-28 -28h39v-30h-39l28 -27l-21 -21l-28 28v-40z"/>
<glyph glyph-name="plus" horiz-adv-x="400" unicode="+" d="M259 79h-117v91h-92v117h92v92h117v-92h91v-117h-91v-91z"/>
<glyph glyph-name="comma" horiz-adv-x="250" unicode="," d="M230 68q0 -19 -8 -35q-7 -14 -19 -26l-3 -3l-67 -71h-113l75 80q-5 5 -8 11q-14 19 -14 44q0 34 23 55q23 23 56 23q32 0 55 -23t23 -55z"/>
<glyph glyph-name="hyphen" horiz-adv-x="413" unicode="-" d="M363 171h-313v116h313v-116z"/>
<glyph glyph-name="period" horiz-adv-x="225" unicode="." d="M113 -10q-33 0 -56 23t-23 55q0 34 23 55q23 23 56 23q32 0 55 -23t23 -55t-23 -55t-55 -23z"/>
<glyph glyph-name="slash" horiz-adv-x="433" unicode="/" d="M149 0h-143l274 712h144z"/>
<glyph glyph-name="zero" horiz-adv-x="618" unicode="0" d="M309 601q-46 0 -78.5 -32t-32.5 -78v-259q0 -46 32.5 -78.5t78.5 -32.5t78.5 32.5t32.5 78.5v259q0 46 -32.5 78t-78.5 32zM309 -10q-102 0 -173 71t-71 171v259q0 100 71 171q72 70 173 70q100 0 172 -70t72 -171v-259q0 -100 -71.5 -171t-172.5 -71z"/>
<glyph glyph-name="one" horiz-adv-x="362" unicode="1" d="M282 0h-135v523l-52 -39l-79 107l162 121h104v-712z"/>
<glyph glyph-name="two" horiz-adv-x="509" unicode="2" d="M472 0h-438v116l289 338q17 25 17 51q0 36 -25.5 62.5t-61.5 26.5q-28 0 -50.5 -17.5t-31.5 -44.5l-7 -21l-128 27l7 26q19 70 77.5 114t132.5 44q91 0 155 -62q64 -64 64 -155q0 -70 -42 -129l-1 -1l-206 -243h249v-132z"/>
<glyph glyph-name="three" horiz-adv-x="532" unicode="3" d="M260 -9q-100 0 -166 66h-1q-68 71 -68 167v25h134v-25q0 -43 29.5 -74t71.5 -31t72 31t30 74q0 41 -30 70.5t-73 29.5h-26v134h26q30 0 52 21.5t22 50.5q0 30 -21.5 52.5t-51.5 22.5q-28 0 -49.5 -22.5t-21.5 -52.5v-25h-135v25q0 84 61 145q58 57 145 57q88 0 146 -57 q61 -59 61 -145q0 -74 -50 -133q3 -2 9 -8q34 -34 52 -75q18 -44 18 -90q0 -100 -69 -167q-32 -32 -76 -51q-40 -15 -91 -15z"/>
<glyph glyph-name="four" horiz-adv-x="596" unicode="4" d="M201 303h127v176zM462 0h-134v172h-308v94l319 446h123v-409h114v-131h-114v-172z"/>
<glyph glyph-name="five" horiz-adv-x="537" unicode="5" d="M252 -8q-110 0 -179 69q-15 14 -28 32l-15 21l110 78l14 -20q38 -53 98 -53q48 0 83.5 34.5t35.5 81.5q0 49 -35.5 85t-83.5 36q-25 0 -53 -15l-9 -4l-122 34l92 342h335v-133l-231 1l-26 -95h14q105 0 180 -72q36 -35 56 -82q19 -49 19 -97q0 -101 -75 -174 q-36 -34 -83 -54q-41 -15 -97 -15z"/>
<glyph glyph-name="six" horiz-adv-x="541" unicode="6" d="M264 340q-44 0 -76 -32t-32 -77q0 -44 32.5 -77t75.5 -33t75 33t32 77q0 45 -31.5 77t-75.5 32zM264 -8q-100 0 -171 69t-71 170q0 59 30 117h1l220 365h157l-146 -242q93 -8 157 -77t64 -163q0 -101 -71 -170q-69 -69 -170 -69z"/>
<glyph glyph-name="seven" horiz-adv-x="488" unicode="7" d="M174 0h-147l269 581h-254v131h425v-77z"/>
<glyph glyph-name="eight" horiz-adv-x="555" unicode="8" d="M276 602q-24 0 -41.5 -18.5t-17.5 -43.5t17.5 -44t41.5 -19q25 0 43 19t18 44t-18 43.5t-43 18.5zM276 350q-46 0 -78.5 -34t-32.5 -81t32.5 -80.5t78.5 -33.5q47 0 80 33.5t33 80.5t-33 81t-80 34zM276 -9q-103 0 -174 71q-72 72 -72 173q0 55 24 105.5t67 84.5 q-39 51 -39 115q0 79 57 136q57 55 137 55q81 0 138 -55t57 -136q0 -39 -15 -75q-14 -28 -24 -40q37 -29 61 -72q30 -54 30 -118q0 -102 -72 -174q-72 -70 -175 -70z"/>
<glyph glyph-name="nine" horiz-adv-x="541" unicode="9" d="M275 601q-45 0 -76.5 -32.5t-31.5 -77.5q0 -44 32 -77t76 -33q43 0 75.5 33t32.5 77q0 45 -32 77.5t-76 32.5zM260 0h-158l153 252q-94 8 -158.5 76.5t-64.5 162.5q0 100 71 170.5t172 70.5q100 0 170.5 -70.5t70.5 -170.5q0 -58 -29 -114l-1 -3z"/>
<glyph glyph-name="colon" horiz-adv-x="257" unicode=":" d="M129 189q-33 0 -56 23t-23 55q0 34 23 55q23 23 56 23q32 0 55 -23t23 -55t-23 -55t-55 -23zM129 -10q-33 0 -56 23t-23 55q0 34 23 55q23 23 56 23q32 0 55 -23t23 -55t-23 -55t-55 -23z"/>
<glyph glyph-name="semicolon" horiz-adv-x="310" unicode=";" d="M182 189q-33 0 -56 23t-23 55q0 34 23 55q23 23 56 23q32 0 55 -23t23 -55t-23 -55t-55 -23zM260 68q0 -19 -8 -35q-7 -14 -19 -26l-3 -3l-67 -71h-113l75 80q-5 5 -8 11q-14 19 -14 44q0 34 23 55q23 23 56 23q32 0 55 -23t23 -55z"/>
<glyph glyph-name="less" horiz-adv-x="310" unicode="&lt;" d="M260 80l-210 116v67l210 117v-121l-65 -29l65 -28v-122z"/>
<glyph glyph-name="equal" horiz-adv-x="413" unicode="=" d="M363 262h-313v116h313v-116zM363 83h-313v116h313v-116z"/>
<glyph glyph-name="greater" horiz-adv-x="310" unicode="&gt;" d="M50 379l210 -116v-67l-210 -117v121l65 29l-65 28v122z"/>
<glyph glyph-name="question" horiz-adv-x="425" unicode="?" d="M281 188h-133v26q0 86 41 186q23 54 54 100q1 0 1 1t1 2v1q20 29 20 48q0 5 -2 11q-4 21 -24 32q-13 8 -27 8q-9 0 -13 -1h-1q-19 -6 -32 -25q-6 -12 -6 -28v-26h-133v26q0 51 25 93q35 65 112 85q22 7 48 7q47 0 93 -23q65 -38 86 -113q7 -28 7 -47q0 -37 -21 -75 q-1 -1 -4 -6t-5 -8q-87 -134 -87 -248v-26zM212 -8q-33 0 -56 23t-23 57q0 33 23.5 56t55.5 23q33 0 56 -23t23 -56q0 -34 -23 -57t-56 -23z"/>
<glyph glyph-name="at" horiz-adv-x="1001" unicode="@" d="M481 371q-36 0 -62.5 -25.5t-26.5 -60.5t26 -60.5t63 -25.5t63.5 25.5t26.5 60.5t-26.5 60.5t-63.5 25.5zM490 -171q-42 0 -94 10q-91 20 -162 68q-73 48 -125 124q-52 79 -68 168q-7 38 -7 79q0 52 12 102q20 82 72 159v1q55 75 129 121q76 48 172 65q40 8 90 8 q48 0 93 -9q91 -20 163 -68q76 -51 125 -124q51 -77 68 -168q6 -33 6 -67q0 -79 -32 -146q-25 -50 -62 -81q-56 -45 -119 -45q-65 0 -115 35q-25 17 -42 39q-23 -13 -40 -19q-33 -13 -73 -13q-93 0 -156 63q-66 64 -66 154t66 154q63 63 156 63q52 0 100 -23h123l1 -268h1 v-25q0 -8 12 -20t27 -12q17 0 36.5 14.5t33.5 40.5q17 28 17 78q0 30 -5 54v1q-21 114 -112.5 188.5t-211.5 74.5q-28 0 -61 -5q-136 -24 -218 -140q-57 -82 -57 -181q0 -24 5 -56q20 -115 111.5 -189.5t210.5 -74.5q32 0 62 6q35 5 81 24l17 17l96 -109l-32 -16 q-64 -31 -137 -43q-47 -9 -91 -9z"/>
<glyph glyph-name="A" horiz-adv-x="710" unicode="A" d="M289 324h132l-66 173zM690 0h-144l-73 192h-236l-74 -192h-143l274 712h121z"/>
<glyph glyph-name="B" horiz-adv-x="648" unicode="B" d="M198 480h130q21 0 35.5 15t14.5 35t-14.5 34.5t-35.5 16.5h-130v-101zM198 131h178q44 2 75.5 34t31.5 76t-31.5 75.5t-74.5 32.5h-179v-218zM377 0h-312v712h264q76 0 128 -54q54 -52 54 -128q0 -41 -18 -80q32 -18 52 -40q71 -69 71 -169q0 -99 -71 -170 q-34 -34 -77 -52q-42 -19 -91 -19z"/>
<glyph glyph-name="C" horiz-adv-x="758" unicode="C" d="M407 -11q-75 0 -145 29q-67 29 -118 80q-53 51 -80 119q-30 69 -30 145q0 154 109.5 263t263.5 109q89 0 167 -40q78 -38 131 -110l16 -20l-107 -79l-15 20q-71 96 -192 96q-99 0 -169.5 -70t-70.5 -169q0 -100 70.5 -170.5t169.5 -70.5q57 0 107 25t85 71l15 19l106 -78 l-16 -20q-53 -71 -131 -110q-76 -39 -166 -39z"/>
<glyph glyph-name="D" horiz-adv-x="703" unicode="D" d="M198 131h106q96 0 164 66t68 159t-68 159t-164 66h-106v-450zM304 0h-239v712h239q151 0 258 -104.5t107 -251.5t-107 -251.5t-258 -104.5z"/>
<glyph glyph-name="E" horiz-adv-x="591" unicode="E" d="M550 0h-460v712h469v-130h-335v-105h292v-133h-292v-212h326v-132z"/>
<glyph glyph-name="F" horiz-adv-x="538" unicode="F" d="M198 0h-133v712h468v-131h-335v-105h185v-132h-185v-344z"/>
<glyph glyph-name="G" horiz-adv-x="772" unicode="G" d="M406 -11q-154 0 -263 109.5t-109 263.5t109 263t263 109q75 0 144 -29q70 -30 120 -81l19 -19l-99 -87l-17 16q-65 67 -167 67q-99 0 -169 -70t-70 -169q0 -100 70 -170.5t169 -70.5q102 0 175 75v148h-195v133h326v-328l-5 -6q-54 -73 -133.5 -113.5t-167.5 -40.5z"/>
<glyph glyph-name="H" horiz-adv-x="697" unicode="H" d="M632 0h-134v345h-289v-345h-134v712h134v-236h289v236h134v-712z"/>
<glyph glyph-name="I" horiz-adv-x="314" unicode="I" d="M224 0h-134v712h134v-712z"/>
<glyph glyph-name="J" horiz-adv-x="457" unicode="J" d="M119 -261q-114 0 -192 76l-23 24l112 81l15 -15q39 -33 88 -33q57 0 98.5 42t41.5 100v564h-176v135h312v-699q0 -115 -81 -196q-34 -36 -89 -59q-51 -20 -106 -20z"/>
<glyph glyph-name="K" horiz-adv-x="764" unicode="K" d="M754 0h-167l-265 372l-114 -108v-264h-133v712h133v-267l284 267h192l-261 -247z"/>
<glyph glyph-name="L" horiz-adv-x="598" unicode="L" d="M572 0h-497v712h134v-581h363v-131z"/>
<glyph glyph-name="M" horiz-adv-x="807" unicode="M" d="M717 0h-133v476l-186 -254l-185 254v-476h-133v712h125l193 -265l193 265h126v-712z"/>
<glyph glyph-name="N" horiz-adv-x="759" unicode="N" d="M669 0h-129l-316 467v-467h-134v712h130l315 -466v466h134v-712z"/>
<glyph glyph-name="O" horiz-adv-x="813" unicode="O" d="M406 601q-98 0 -168 -70t-70 -170q0 -99 70 -169t168 -70t168 70t70 169q0 100 -70 170t-168 70zM406 -10q-154 0 -263 108.5t-109 262.5t109 263.5t263 109.5t263.5 -109t109.5 -264q0 -154 -109 -262.5t-264 -108.5z"/>
<glyph glyph-name="P" horiz-adv-x="548" unicode="P" d="M208 478h122q21 0 35.5 15t14.5 36t-15 36.5t-35 15.5h-122v-103zM208 0h-133v712h255q76 0 130 -54q54 -56 54 -129q0 -76 -54 -129t-130 -53h-122v-347z"/>
<glyph glyph-name="Q" horiz-adv-x="871" unicode="Q" d="M404 602q-98 0 -168 -70t-70 -170q0 -99 70 -169t168 -70q61 0 115 31l-180 179l95 94l179 -179q29 52 29 114q0 100 -70 170t-168 70zM404 -9q-154 0 -263 108.5t-109 262.5t109 263.5t263 109.5q75 0 145 -29q67 -29 118 -80q54 -54 80 -119q30 -69 30 -145 q0 -66 -22 -123q-16 -47 -45 -88l151 -151h-188l-57 57q-39 -28 -88 -45q-60 -21 -124 -21z"/>
<glyph glyph-name="R" horiz-adv-x="673" unicode="R" d="M195 478h125q21 0 36.5 15t15.5 37t-15.5 37t-36.5 15h-125v-104zM663 0h-158l-253 348h-57v-348h-130v712h255q74 0 128 -54t54 -128q0 -53 -28.5 -97.5t-75.5 -67.5z"/>
<glyph glyph-name="S" horiz-adv-x="625" unicode="S" d="M331 -6q-32 0 -72 8q-114 23 -209 106l-19 17l88 100l19 -17q71 -62 147 -77h1q25 -5 45 -5q37 0 67 14q52 22 52 73q0 32 -34 53q-33 20 -93 31q-24 4 -77.5 18t-83.5 31q-46 28 -72 71q-25 43 -25 96q0 58 35 111q34 44 88 70q55 26 119 26q17 0 53 -4q103 -19 188 -90 l19 -16l-85 -103l-19 16q-80 65 -157 65q-33 0 -62 -13q-46 -21 -46 -61q0 -31 27 -49t94 -33q6 -1 22 -5q95 -18 137 -43q50 -26 78 -72q27 -44 27 -99q0 -68 -36 -119q-32 -44 -93 -74q-51 -26 -123 -26z"/>
<glyph glyph-name="T" horiz-adv-x="538" unicode="T" d="M336 0h-134v580h-175v132h484v-132h-175v-580z"/>
<glyph glyph-name="U" horiz-adv-x="695" unicode="U" d="M347 -10q-115 0 -196 81t-81 196v445h133v-445q0 -60 42.5 -103t101.5 -43q60 0 102 43t42 103v445h134v-445q0 -115 -81 -196q-83 -81 -197 -81z"/>
<glyph glyph-name="V" horiz-adv-x="710" unicode="V" d="M416 0h-121l-275 712h144l191 -497l192 497h143z"/>
<glyph glyph-name="W" horiz-adv-x="1044" unicode="W" d="M825 0h-123l-180 316l-180 -316h-123l-199 712h140l142 -513l159 278h123l158 -278l143 513h139z"/>
<glyph glyph-name="X" horiz-adv-x="737" unicode="X" d="M717 -1h-163l-185 259l-186 -259h-163l267 373l-243 339h164l161 -224l161 224h163l-243 -339z"/>
<glyph glyph-name="Y" horiz-adv-x="681" unicode="Y" d="M408 0h-135v352l-257 360h164l161 -225l161 225h163l-257 -360v-352z"/>
<glyph glyph-name="Z" horiz-adv-x="588" unicode="Z" d="M533 0h-467v120l315 467h-316v125h467v-131l-307 -456h308v-125z"/>
<glyph glyph-name="bracketleft" horiz-adv-x="313" unicode="[" d="M258 1h-203v734h203v-130h-72v-475h72v-129z"/>
<glyph glyph-name="backslash" horiz-adv-x="434" unicode="\" d="M427 -1h-144l-276 712h144z"/>
<glyph glyph-name="bracketright" horiz-adv-x="313" unicode="]" d="M258 1h-203v129h73v475h-73v130h203v-734z"/>
<glyph glyph-name="underscore" horiz-adv-x="479" unicode="_" d="M429 0h-379v116h379v-116z"/>
<glyph glyph-name="grave" horiz-adv-x="243" unicode="`" d="M34 662h107l68 -140h-67z"/>
<glyph glyph-name="a" d="M272 350q-48 0 -83 -36t-35 -85t35 -85t83 -36t83 36t35 85t-35 85t-83 36zM272 -9q-98 0 -169 69q-70 72 -70 169t70 169q69 69 169 69q64 0 113 -45l5 -4v40h121v-458h-121v36l-5 -5q-41 -40 -113 -40z" unicode="a"/>
<glyph glyph-name="b" horiz-adv-x="577" unicode="b" d="M189 229q0 -49 35 -85t83 -36t83 36t35 85t-35 85t-83 36t-83 -36t-35 -85zM307 -9q-72 0 -113 40l-5 5v-36h-121v734h121v-316l5 4q50 45 113 45q100 0 169 -69q70 -72 70 -169t-70 -169q-71 -69 -169 -69z"/>
<glyph glyph-name="c" horiz-adv-x="513" unicode="c" d="M272 -10q-98 0 -169 69l-1 1q-69 71 -69 169q0 99 69 170q71 69 170 69q103 0 169 -69q14 -15 25 -28l12 -18l-98 -73l-14 19q-39 52 -94 52q-47 0 -82 -36.5t-35 -85.5t35 -85.5t82 -36.5q56 0 94 54l13 18l102 -73l-15 -19q-2 -3 -8 -9q-10 -12 -17 -19 q-69 -69 -169 -69z"/>
<glyph glyph-name="d" horiz-adv-x="564" unicode="d" d="M272 350q-48 0 -83 -36t-35 -85t35 -85t83 -36t83 36t35 85t-35 85t-83 36zM272 -9q-98 0 -169 69q-70 72 -70 169t70 169q69 69 169 69q64 0 113 -45l5 -4v316h121v-734h-121v36l-5 -5q-41 -40 -113 -40z"/>
<glyph glyph-name="e" horiz-adv-x="509" unicode="e" d="M257 364q-29 0 -56 -19t-43 -50l-4 -8h207l-4 8q-37 69 -100 69zM257 -11h-1q-44 0 -87 20q-37 16 -72 52q-53 58 -61 140q-2 18 -2 28q0 28 8 62q14 63 55 105q30 33 72 53q39 19 88 19t88 -19q44 -21 72 -53q41 -44 56 -105q7 -27 7 -62v-23h-336l1 -7q10 -47 41.5 -77 t70.5 -30h1q41 3 80 36l11 9l83 -72l-15 -13q-23 -21 -40 -30h-1q-54 -32 -119 -33z"/>
<glyph glyph-name="f" horiz-adv-x="400" unicode="f" d="M223 0h-121v351h-65v103h65v118q0 68 47 115q50 47 116 47h122l-32 -118h-88q-17 0 -30.5 -13.5t-13.5 -32.5v-116h133v-103h-133v-351z"/>
<glyph glyph-name="g" d="M272 351q-48 0 -83 -36t-35 -86q0 -49 35 -85t83 -36t83 36t35 85q0 50 -35 86t-83 36zM266 -266q-75 0 -132 36q-16 8 -44 33l-16 16l90 79l13 -11q44 -33 89 -36q51 1 87.5 39t36.5 90v58l-5 -5q-24 -23 -48 -31t-57 -10h-17q-95 3 -160 68q-70 72 -70 169t70 169 q71 69 169 69q70 0 113 -43l5 -4v38h121v-479q0 -102 -73 -173q-69 -72 -172 -72z" unicode="g"/>
<glyph glyph-name="h" horiz-adv-x="537" unicode="h" d="M491 0h-126v245q0 40 -28 68t-69 28q-39 0 -68 -28.5t-29 -67.5v-245h-125v734h125v-309q42 42 97 42q92 0 158 -64q65 -67 65 -158v-245z"/>
<glyph glyph-name="i" horiz-adv-x="285" unicode="i" d="M143 513q-32 0 -55 22.5t-23 54.5q0 33 23 54q23 23 55 23q31 0 54 -22.5t23 -54.5t-23 -54.5t-54 -22.5zM208 0h-130v458h130v-458z"/>
<glyph glyph-name="j" horiz-adv-x="244" unicode="j" d="M116 514q-33 0 -56 23t-23 55q0 34 23 55q23 23 56 23q32 0 55 -23t23 -55t-23 -55t-55 -23zM-34 -256l-18 130l22 6q29 6 54 28q23 23 26 58v492h131v-482q0 -93 -65 -160q-52 -49 -123 -65z"/>
<glyph glyph-name="k" horiz-adv-x="542" unicode="k" d="M532 0h-156l-159 203l-41 -42v-161h-130v734h130v-397l126 121h177l-172 -164z"/>
<glyph glyph-name="l" horiz-adv-x="250" unicode="l" d="M185 0h-130v734h130v-734z"/>
<glyph glyph-name="m" horiz-adv-x="856" unicode="m" d="M810 0h-125v245q0 40 -29 70t-68 30q-40 0 -69 -29.5t-29 -70.5v-245h-125v245q0 41 -28.5 70.5t-68.5 29.5q-39 0 -68 -30t-29 -70v-245h-125v458h125v-33q42 42 97 42q44 0 86 -18q38 -18 72 -50l2 -2l2 2q32 32 72 50q42 18 86 18q91 0 157 -64q65 -67 65 -158v-245z "/>
<glyph glyph-name="n" horiz-adv-x="543" unicode="n" d="M497 0h-126v245q0 40 -28 68t-69 28q-39 0 -68 -28.5t-29 -67.5v-245h-125v458h125v-33q42 42 97 42q92 0 158 -64q65 -67 65 -158v-245z"/>
<glyph glyph-name="o" horiz-adv-x="548" unicode="o" d="M273 354q-50 0 -86 -36.5t-36 -88.5t36 -88.5t86 -36.5q51 0 87 36.5t36 88.5t-36 88.5t-87 36.5zM273 -11q-97 0 -170 70q-70 73 -70 170q0 98 70 170q72 69 170 69q102 0 169 -69q71 -71 71 -170t-71 -170q-70 -70 -169 -70z"/>
<glyph glyph-name="p" d="M289 108q48 0 83 36t35 85t-35 85t-83 36t-83 -36t-35 -85t35 -85t83 -36zM289 467q98 0 169 -69q70 -72 70 -169t-70 -169q-69 -69 -169 -69q-63 0 -113 45l-5 4v-306h-121v724h121v-36l5 5q41 40 113 40z" unicode="p"/>
<glyph glyph-name="q" d="M390 229q0 49 -35 85t-83 36t-83 -36t-35 -85t35 -85t83 -36t83 36t35 85zM272 467q72 0 113 -40l5 -5v36h121v-724h-121v306l-5 -4q-49 -45 -113 -45q-100 0 -169 69q-70 72 -70 169t70 169q71 69 169 69z" unicode="q"/>
<glyph glyph-name="r" horiz-adv-x="356" unicode="r" d="M191 0h-126v458h126v-37q48 48 126 48h30l-30 -125h-19q-44 0 -75.5 -30t-31.5 -71v-243z"/>
<glyph glyph-name="s" horiz-adv-x="436" unicode="s" d="M230 -4q-17 0 -47 5q-79 16 -134 65l-15 12l75 83l14 -13q52 -44 103 -44q25 0 41 8q22 9 22 30q0 26 -66 37q-77 16 -104 31q-32 18 -50 48t-18 67q0 39 24 74q19 27 60 48q33 16 80 16q12 0 32 -2q69 -11 124 -54l15 -12l-71 -82l-14 11q-41 33 -83 33q-21 0 -36 -7 q-20 -11 -20 -25q0 -11 12.5 -19.5t49.5 -16.5q75 -18 104 -30q32 -18 50 -42q22 -31 22 -75t-23 -76q-24 -34 -64 -53q-36 -17 -83 -17z"/>
<glyph glyph-name="t" horiz-adv-x="387" unicode="t" d="M367 0h-120q-68 0 -115 47t-47 115v190h-64v103h64v180h119v-180h133v-103h-133v-188q0 -19 13.5 -33.5t30.5 -14.5h87z"/>
<glyph glyph-name="u" horiz-adv-x="549" unicode="u" d="M274 -11q-91 0 -151 60q-63 60 -63 149v260h126v-260q0 -35 25.5 -60t62.5 -25t63 25t26 60v260h126v-260q0 -87 -64 -149q-62 -60 -151 -60z"/>
<glyph glyph-name="v" horiz-adv-x="530" unicode="v" d="M320 0h-110l-186 458h129l112 -274l111 274h130z"/>
<glyph glyph-name="w" horiz-adv-x="696" unicode="w" d="M583 0h-110l-125 220l-124 -220h-111l-86 458h119l52 -274l96 169h108l97 -169l52 274h118z"/>
<glyph glyph-name="x" horiz-adv-x="610" unicode="x" d="M587 0h-159l-123 148l-122 -148h-160l205 241l-185 217h160l102 -123l102 123h159l-183 -217z"/>
<glyph glyph-name="y" horiz-adv-x="548" unicode="y" d="M230 -266h-131l109 265l-183 459h134l114 -285l116 285h133z"/>
<glyph glyph-name="z" horiz-adv-x="418" unicode="z" d="M393 0h-362v105l214 248h-215v105h362v-105l-209 -245h210v-108z"/>
<glyph glyph-name="braceleft" horiz-adv-x="390" unicode="{" d="M355 -61h-25q-64 0 -115 43q-44 36 -74 95q-45 90 -45 141q0 41 -13 67q-4 4 -10 6q-2 0 -4 2l-14 7v111l14 7q1 1 4 1q5 2 8 5l2 1v1q13 24 13 67q0 34 16.5 77t28.5 63q29 59 74 96q54 43 115 43h25v-132h-25q-37 0 -73 -67q-30 -60 -30 -80q0 -58 -35 -127 q-1 -2 -3 -5.5t-3 -5.5q1 -1 6 -11q35 -67 35 -126q0 -21 30 -81q37 -67 73 -67h25v-131z"/>
<glyph glyph-name="bar" horiz-adv-x="267" unicode="|" d="M192 -165h-117v1040h117v-1040z"/>
<glyph glyph-name="braceright" horiz-adv-x="390" unicode="}" d="M35 772h25q63 0 115 -44q44 -36 74 -95q45 -83 45 -140q0 -43 13 -67v-1q2 -2 10 -6q3 0 4 -1l14 -7v-111l-14 -7q-2 -2 -4 -2q-10 -4 -10 -6q-13 -26 -13 -67q0 -50 -45 -140q-28 -57 -74 -97q-53 -42 -115 -42h-25v131h25q36 0 72 67q30 60 30 81q0 57 36 126 q1 2 2.5 5.5t2.5 5.5q-4 8 -5 11q-36 70 -36 127q0 20 -30 80q-35 67 -72 67h-25v132z"/>
<glyph glyph-name="exclamdown" horiz-adv-x="309" unicode="¡" d="M155 318q-32 0 -56 24t-24 56q0 33 24 57q25 23 56 23q33 0 56 -23.5t23 -56.5t-23 -56q-24 -24 -56 -24zM221 -266h-133v547h133v-547z"/>
<glyph glyph-name="sterling" horiz-adv-x="467" unicode="£" d="M435 1h-410l32 127h20q49 0 70 18t21 61v129h-63v122h63v71q0 54 16 92q18 48 59 74q25 17 55 25.5t49 9.5t53 1h42l-33 -130h-20q-51 0 -70 -15q-20 -16 -20 -57v-71h131v-122h-131v-129q0 -41 -10 -79h146v-127z"/>
<glyph glyph-name="yen" horiz-adv-x="681" unicode="¥" d="M410 252h104v-94h-106v-157h-135v157h-104v94h102v39h-102v102h75l-228 320h164l161 -225l161 225h163l-228 -320h77v-102h-104v-39z"/>
<glyph glyph-name="dieresis" horiz-adv-x="378" unicode="¨" d="M107 528q-23 0 -40 17t-17 42q0 23 17 40t40 17q24 0 41.5 -17t17.5 -40q0 -26 -17 -41l-1 -1q-15 -17 -41 -17zM270 528q-23 0 -42 17q-17 19 -17 42t17 40t42 17q24 0 41 -17t17 -40q0 -25 -17 -42t-41 -17z"/>
<glyph glyph-name="macron" horiz-adv-x="422" unicode="¯" d="M372 554h-322v79h322v-79z"/>
<glyph glyph-name="degree" horiz-adv-x="333" unicode="°" d="M166 549q21 0 36 14.5t15 34.5t-15 35t-36 15t-36 -15t-15 -35t15 -34.5t36 -14.5zM166 727q55 0 94 -37.5t39 -91.5q0 -53 -39 -90.5t-94 -37.5t-93.5 37.5t-38.5 90.5q0 54 38.5 91.5t93.5 37.5z"/>
<glyph glyph-name="acute" horiz-adv-x="243" unicode="´" d="M101 662h108l-108 -140h-67z"/>
<glyph glyph-name="cedilla" horiz-adv-x="276" unicode="¸" d="M156 92h104l-86 -182h-158z"/>
<glyph glyph-name="questiondown" horiz-adv-x="413" unicode="¿" d="M139 280h134v-25q0 -89 -42 -186q-22 -54 -53 -100l-3 -4q-20 -29 -20 -49q0 -4 2 -10v-1q7 -21 25 -32q16 -8 26 -8q6 0 14 2q21 7 32 25q7 14 7 28v25h133v-25q0 -51 -25 -93q-38 -66 -112 -86q-24 -6 -49 -6q-50 0 -91 22l-1 1q-68 39 -86 113q-7 22 -7 47q0 36 21 74 q1 2 9 14q86 133 86 249v25zM208 477q35 0 56 -24q24 -24 24 -56q0 -33 -23.5 -56t-56.5 -23q-32 0 -55.5 23t-23.5 56t23 56q23 24 56 24z"/>
<glyph glyph-name="Agrave" horiz-adv-x="710" unicode="À" d="M204 916h107l68 -140h-67zM289 324h132l-66 173zM690 0h-144l-73 192h-236l-74 -192h-143l274 712h121z"/>
<glyph glyph-name="Aacute" horiz-adv-x="710" unicode="Á" d="M390 916h108l-108 -140h-67zM289 324h132l-66 173zM690 0h-144l-73 192h-236l-74 -192h-143l274 712h121z"/>
<glyph glyph-name="Acircumflex" horiz-adv-x="710" unicode="Â" d="M497 780h-86l-56 70l-55 -70h-87l102 135h80zM289 324h132l-66 173zM690 0h-144l-73 192h-236l-74 -192h-143l274 712h121z"/>
<glyph glyph-name="Atilde" horiz-adv-x="710" unicode="Ã" d="M436 886l55 -36l-5 -8q-36 -55 -91 -55q-28 0 -65 26q-14 8 -21 8q-12 0 -29 -23l-5 -7l-59 38q19 30 38 43q23 19 56 19q21 0 40 -11q24 -15 41 -24q4 -2 6 -2q6 0 13 4.5t11.5 9.5t9 11t5.5 7zM421 324l-66 173l-66 -173h132zM546 0l-73 192h-236l-74 -192h-143 l274 712h121l275 -712h-144z"/>
<glyph glyph-name="Adieresis" horiz-adv-x="710" unicode="Ä" d="M273 782q-23 0 -40 17t-17 42q0 23 17 40t40 17q24 0 41.5 -17t17.5 -40q0 -26 -17 -41l-1 -1q-15 -17 -41 -17zM436 782q-23 0 -42 17q-17 19 -17 42t17 40t42 17q24 0 41 -17t17 -40q0 -25 -17 -42t-41 -17zM289 324h132l-66 173zM690 0h-144l-73 192h-236l-74 -192 h-143l274 712h121z"/>
<glyph glyph-name="Aring" horiz-adv-x="710" unicode="Å" d="M354 836q11 0 19.5 8t8.5 19q0 12 -8.5 20t-19.5 8t-19.5 -8t-8.5 -20q0 -11 8.5 -19t19.5 -8zM354 951q37 0 63 -25t26 -62t-26 -62.5t-63 -25.5t-63 25.5t-26 62.5t26 62t63 25zM421 324l-66 173l-66 -173h132zM546 0l-73 192h-236l-74 -192h-143l274 712h121l275 -712 h-144z"/>
<glyph glyph-name="AE" horiz-adv-x="861" unicode="Æ" d="M288 324h84v222zM833 0h-461v192h-136l-73 -192h-143l274 712h547v-130h-335v-135h292v-133h-292v-182h327v-132z"/>
<glyph glyph-name="Ccedilla" horiz-adv-x="764" unicode="Ç" d="M388 -137h-157l99 128q-117 25 -198 113q-99 108 -99 255q0 155 110.5 265t265.5 110q91 0 169 -39q78 -40 132 -112l16 -21l-108 -79l-15 21q-73 97 -194 97q-100 0 -171.5 -71t-71.5 -171q0 -101 71 -172t172 -71q120 0 194 96l15 20l107 -79l-16 -21 q-50 -66 -123 -106q-64 -34 -140 -42z"/>
<glyph glyph-name="Egrave" horiz-adv-x="591" unicode="È" d="M178 916h107l68 -140h-67zM550 0h-460v712h469v-130h-335v-105h292v-133h-292v-212h326v-132z"/>
<glyph glyph-name="Eacute" horiz-adv-x="591" unicode="É" d="M367 916h108l-108 -140h-67zM550 0h-460v712h469v-130h-335v-105h292v-133h-292v-212h326v-132z"/>
<glyph glyph-name="Ecircumflex" horiz-adv-x="591" unicode="Ê" d="M465 780h-86l-56 70l-55 -70h-87l102 135h80zM550 0h-460v712h469v-130h-335v-105h292v-133h-292v-212h326v-132z"/>
<glyph glyph-name="Edieresis" horiz-adv-x="591" unicode="Ë" d="M246 782q-23 0 -40 17t-17 42q0 23 17 40t40 17q24 0 41.5 -17t17.5 -40q0 -26 -17 -41l-1 -1q-15 -17 -41 -17zM409 782q-23 0 -42 17q-17 19 -17 42t17 40t42 17q24 0 41 -17t17 -40q0 -25 -17 -42t-41 -17zM550 0h-460v712h469v-130h-335v-105h292v-133h-292v-212h326 v-132z"/>
<glyph glyph-name="Igrave" horiz-adv-x="290" unicode="Ì" d="M10 916h107l68 -140h-67zM225 0h-134v712h134v-712z"/>
<glyph glyph-name="Iacute" horiz-adv-x="292" unicode="Í" d="M182 916h108l-108 -140h-67zM215 0h-134v712h134v-712z"/>
<glyph glyph-name="Icircumflex" horiz-adv-x="324" unicode="Î" d="M304 780h-86l-56 70l-55 -70h-87l102 135h80zM231 0h-134v712h134v-712z"/>
<glyph glyph-name="Idieresis" horiz-adv-x="318" unicode="Ï" d="M77 782q-23 0 -40 17t-17 42q0 23 17 40t40 17q24 0 41.5 -17t17.5 -40q0 -26 -17 -41l-1 -1q-15 -17 -41 -17zM240 782q-23 0 -42 17q-17 19 -17 42t17 40t42 17q24 0 41 -17t17 -40q0 -25 -17 -42t-41 -17zM226 0h-134v712h134v-712z"/>
<glyph glyph-name="Eth" horiz-adv-x="744" unicode="Ð" d="M239 129h106q96 0 164 66t68 159t-68 159t-164 66h-106v-165h124v-121h-124v-164zM345 -2h-239v295h-106v121h106v296h239q151 0 258 -104.5t107 -251.5q0 -148 -107 -252t-258 -104z"/>
<glyph glyph-name="Ntilde" horiz-adv-x="759" unicode="Ñ" d="M461 886l55 -36l-5 -8q-36 -55 -91 -55q-28 0 -65 26q-14 8 -21 8q-12 0 -29 -23l-5 -7l-59 38q19 30 38 43q23 19 56 19q21 0 40 -11q24 -15 41 -24q4 -2 6 -2q6 0 13 4.5t11.5 9.5t9 11t5.5 7zM540 0l-316 467v-467h-134v712h130l315 -466v466h134v-712h-129z"/>
<glyph glyph-name="Ograve" horiz-adv-x="813" unicode="Ò" d="M260 916h107l68 -140h-67zM406 601q-98 0 -168 -70t-70 -170q0 -99 70 -169t168 -70t168 70t70 169q0 100 -70 170t-168 70zM406 -10q-154 0 -263 108.5t-109 262.5t109 263.5t263 109.5t263.5 -109t109.5 -264q0 -154 -109 -262.5t-264 -108.5z"/>
<glyph glyph-name="Oacute" horiz-adv-x="813" unicode="Ó" d="M447 916h108l-108 -140h-67zM406 601q-98 0 -168 -70t-70 -170q0 -99 70 -169t168 -70t168 70t70 169q0 100 -70 170t-168 70zM406 -10q-154 0 -263 108.5t-109 262.5t109 263.5t263 109.5t263.5 -109t109.5 -264q0 -154 -109 -262.5t-264 -108.5z"/>
<glyph glyph-name="Ocircumflex" horiz-adv-x="813" unicode="Ô" d="M548 780h-86l-56 70l-55 -70h-87l102 135h80zM406 601q-98 0 -168 -70t-70 -170q0 -99 70 -169t168 -70t168 70t70 169q0 100 -70 170t-168 70zM406 -10q-154 0 -263 108.5t-109 262.5t109 263.5t263 109.5t263.5 -109t109.5 -264q0 -154 -109 -262.5t-264 -108.5z"/>
<glyph glyph-name="Otilde" horiz-adv-x="813" unicode="Õ" d="M490 886l55 -36l-5 -8q-36 -55 -91 -55q-28 0 -65 26q-14 8 -21 8q-12 0 -29 -23l-5 -7l-59 38q19 30 38 43q23 19 56 19q21 0 40 -11q24 -15 41 -24q4 -2 6 -2q6 0 13 4.5t11.5 9.5t9 11t5.5 7zM406 601q-98 0 -168 -70t-70 -170q0 -99 70 -169t168 -70t168 70t70 169 q0 100 -70 170t-168 70zM406 -10q-154 0 -263 108.5t-109 262.5t109 263.5t263 109.5t263.5 -109t109.5 -264q0 -154 -109 -262.5t-264 -108.5z"/>
<glyph glyph-name="Odieresis" horiz-adv-x="813" unicode="Ö" d="M325 782q-23 0 -40 17t-17 42q0 23 17 40t40 17q24 0 41.5 -17t17.5 -40q0 -26 -17 -41l-1 -1q-15 -17 -41 -17zM488 782q-23 0 -42 17q-17 19 -17 42t17 40t42 17q24 0 41 -17t17 -40q0 -25 -17 -42t-41 -17zM406 601q-98 0 -168 -70t-70 -170q0 -99 70 -169t168 -70 t168 70t70 169q0 100 -70 170t-168 70zM406 -10q-154 0 -263 108.5t-109 262.5t109 263.5t263 109.5t263.5 -109t109.5 -264q0 -154 -109 -262.5t-264 -108.5z"/>
<glyph glyph-name="multiply" horiz-adv-x="340" unicode="×" d="M110 96l-76 76l60 59l-60 60l76 75l60 -59l59 59l76 -75l-59 -60l60 -59l-77 -76l-59 59z"/>
<glyph glyph-name="Oslash" horiz-adv-x="822" unicode="Ø" d="M416 594q-98 0 -168 -70.5t-70 -168.5q0 -58 28 -111l322 321q-52 29 -112 29zM619 479l-328 -327q58 -36 125 -36q98 0 168 70t70 169q0 66 -35 124zM123 -17l-89 89l75 74q-26 38 -44 87q-21 58 -21 122q0 75 30 144q26 65 79 118q51 51 118 80q70 29 145 29 q64 0 122 -21q44 -14 87 -43l56 56l88 -88l-54 -55q33 -44 50 -91q23 -63 23 -129q0 -75 -29 -145q-28 -65 -80 -117q-51 -51 -119 -80q-69 -29 -144 -29q-66 0 -129 23q-49 18 -92 50z"/>
<glyph glyph-name="Ugrave" horiz-adv-x="690" unicode="Ù" d="M205 916h107l68 -140h-67zM347 -10q-115 0 -196 81t-81 196v445h133v-445q0 -60 42.5 -103t101.5 -43q60 0 102 43t42 103v445h134v-445q0 -115 -81 -196q-83 -81 -197 -81z"/>
<glyph glyph-name="Uacute" horiz-adv-x="690" unicode="Ú" d="M391 916h108l-108 -140h-67zM347 -10q-115 0 -196 81t-81 196v445h133v-445q0 -60 42.5 -103t101.5 -43q60 0 102 43t42 103v445h134v-445q0 -115 -81 -196q-83 -81 -197 -81z"/>
<glyph glyph-name="Ucircumflex" horiz-adv-x="690" unicode="Û" d="M493 780h-86l-56 70l-55 -70h-87l102 135h80zM347 -10q-115 0 -196 81t-81 196v445h133v-445q0 -60 42.5 -103t101.5 -43q60 0 102 43t42 103v445h134v-445q0 -115 -81 -196q-83 -81 -197 -81z"/>
<glyph glyph-name="Udieresis" horiz-adv-x="690" unicode="Ü" d="M270 782q-23 0 -40 17t-17 42q0 23 17 40t40 17q24 0 41.5 -17t17.5 -40q0 -26 -17 -41l-1 -1q-15 -17 -41 -17zM433 782q-23 0 -42 17q-17 19 -17 42t17 40t42 17q24 0 41 -17t17 -40q0 -25 -17 -42t-41 -17zM347 -10q-115 0 -196 81t-81 196v445h133v-445 q0 -60 42.5 -103t101.5 -43q60 0 102 43t42 103v445h134v-445q0 -115 -81 -196q-83 -81 -197 -81z"/>
<glyph glyph-name="Yacute" horiz-adv-x="681" unicode="Ý" d="M388 916h108l-108 -140h-67zM408 0h-135v352l-257 360h164l161 -225l161 225h163l-257 -360v-352z"/>
<glyph glyph-name="Thorn" horiz-adv-x="547" unicode="Þ" d="M208 306h122q20 0 34.5 15t14.5 35q0 21 -14.5 36.5t-34.5 15.5h-122v-102zM208 1h-133v712h133v-174h122q75 0 130 -53q53 -55 53 -130t-54 -129q-53 -53 -129 -53h-122v-173z"/>
<glyph glyph-name="germandbls" horiz-adv-x="535" unicode="ß" d="M258 1h-25v131h25q44 0 75 30.5t31 73.5q0 42 -31 72t-75 30h-25v131h25q26 0 44.5 18t18.5 43t-18.5 42t-44.5 17q-25 0 -43 -17t-18 -42v-529h-132v529q0 80 57 135q58 56 136 56q80 0 137 -56t57 -135q0 -65 -39 -116q2 -2 6.5 -6t6.5 -6q70 -68 70 -166 q0 -48 -18 -90q-18 -43 -52 -77q-71 -68 -168 -68z"/>
<glyph glyph-name="agrave" d="M116 667h107l68 -140h-67zM272 350q-48 0 -83 -36t-35 -85t35 -85t83 -36t83 36t35 85t-35 85t-83 36zM272 -9q-98 0 -169 69q-70 72 -70 169t70 169q69 69 169 69q64 0 113 -45l5 -4v40h121v-458h-121v36l-5 -5q-41 -40 -113 -40z" unicode="à"/>
<glyph glyph-name="aacute" d="M309 662h108l-108 -140h-67zM272 350q-48 0 -83 -36t-35 -85t35 -85t83 -36t83 36t35 85t-35 85t-83 36zM272 -9q-98 0 -169 69q-70 72 -70 169t70 169q69 69 169 69q64 0 113 -45l5 -4v40h121v-458h-121v36l-5 -5q-41 -40 -113 -40z" unicode="á"/>
<glyph glyph-name="acircumflex" d="M417 526h-86l-56 70l-55 -70h-87l102 135h80zM272 350q-48 0 -83 -36t-35 -85t35 -85t83 -36t83 36t35 85t-35 85t-83 36zM272 -9q-98 0 -169 69q-70 72 -70 169t70 169q69 69 169 69q64 0 113 -45l5 -4v40h121v-458h-121v36l-5 -5q-41 -40 -113 -40z" unicode="â"/>
<glyph glyph-name="atilde" d="M358 632l55 -36l-5 -8q-36 -55 -91 -55q-28 0 -65 26q-14 8 -21 8q-12 0 -29 -23l-5 -7l-59 38q19 30 38 43q23 19 56 19q21 0 40 -11q24 -15 41 -24q4 -2 6 -2q6 0 13 4.5t11.5 9.5t9 11t5.5 7zM272 350q-48 0 -83 -36t-35 -85t35 -85t83 -36t83 36t35 85t-35 85t-83 36 zM272 -9q-98 0 -169 69q-70 72 -70 169t70 169q69 69 169 69q64 0 113 -45l5 -4v40h121v-458h-121v36l-5 -5q-41 -40 -113 -40z" unicode="ã"/>
<glyph glyph-name="adieresis" d="M196 528q-23 0 -40 17t-17 42q0 23 17 40t40 17q24 0 41.5 -17t17.5 -40q0 -26 -17 -41l-1 -1q-15 -17 -41 -17zM359 528q-23 0 -42 17q-17 19 -17 42t17 40t42 17q24 0 41 -17t17 -40q0 -25 -17 -42t-41 -17zM272 350q-48 0 -83 -36t-35 -85t35 -85t83 -36t83 36t35 85 t-35 85t-83 36zM272 -9q-98 0 -169 69q-70 72 -70 169t70 169q69 69 169 69q64 0 113 -45l5 -4v40h121v-458h-121v36l-5 -5q-41 -40 -113 -40z" unicode="ä"/>
<glyph glyph-name="aring" d="M274 582q11 0 19.5 8t8.5 19q0 12 -8.5 20t-19.5 8t-19.5 -8t-8.5 -20q0 -11 8.5 -19t19.5 -8zM274 697q37 0 63 -25t26 -62t-26 -62.5t-63 -25.5t-63 25.5t-26 62.5t26 62t63 25zM272 350q-48 0 -83 -36t-35 -85t35 -85t83 -36t83 36t35 85t-35 85t-83 36zM272 -9 q-98 0 -169 69q-70 72 -70 169t70 169q69 69 169 69q64 0 113 -45l5 -4v40h121v-458h-121v36l-5 -5q-41 -40 -113 -40z" unicode="å"/>
<glyph glyph-name="ae" horiz-adv-x="840" unicode="æ" d="M605 362q-29 0 -56 -19t-43 -50l-4 -8h207l-4 8q-17 32 -44 50.5t-56 18.5zM251 356q-50 0 -86.5 -37.5t-36.5 -88.5t36.5 -88.5t86.5 -37.5q49 0 85.5 37.5t36.5 88.5t-36.5 88.5t-85.5 37.5zM605 -12h-1q-44 0 -81 17q-16 8 -21 21l-11 -2v-24h-118v41l-9 -10 q-41 -40 -113 -40q-98 0 -170 69q-70 72 -70 170t70 170q71 69 170 69q63 0 113 -45l9 -8v44h118v-47l11 14q17 19 22 21q37 17 81 17q45 0 88 -19q43 -21 71 -53q41 -44 56 -104q7 -33 7 -62q0 -16 -1 -23h-334l1 -7q10 -46 41.5 -76t70.5 -30h1q39 3 80 35l11 9l82 -71 l-15 -13q-19 -19 -40 -30q-54 -32 -119 -33z"/>
<glyph glyph-name="ccedilla" horiz-adv-x="521" unicode="ç" d="M383 179l102 -73l-15 -19q-2 -2 -4.5 -5t-3.5 -4q-10 -12 -17 -19q-49 -49 -117 -63l-59 -126h-158l99 129q-60 17 -103 60l-1 1q-69 69 -69 169q0 101 69 170t170 69q102 0 169 -69q1 -1 25 -28l12 -18l-98 -73l-14 19q-39 52 -94 52q-48 0 -82.5 -36t-34.5 -86 t34.5 -86t82.5 -36q56 0 94 54z"/>
<glyph glyph-name="egrave" horiz-adv-x="509" unicode="è" d="M104 662h107l68 -140h-67zM257 364q-29 0 -56 -19t-43 -50l-4 -8h207l-4 8q-37 69 -100 69zM257 -11h-1q-44 0 -87 20q-37 16 -72 52q-53 58 -61 140q-2 18 -2 28q0 28 8 62q14 63 55 105q30 33 72 53q39 19 88 19t88 -19q44 -21 72 -53q41 -44 56 -105q7 -27 7 -62v-23 h-336l1 -7q10 -47 41.5 -77t70.5 -30h1q41 3 80 36l11 9l83 -72l-15 -13q-23 -21 -40 -30h-1q-54 -32 -119 -33z"/>
<glyph glyph-name="eacute" horiz-adv-x="509" unicode="é" d="M303 662h108l-108 -140h-67zM257 364q-29 0 -56 -19t-43 -50l-4 -8h207l-4 8q-37 69 -100 69zM257 -11h-1q-44 0 -87 20q-37 16 -72 52q-53 58 -61 140q-2 18 -2 28q0 28 8 62q14 63 55 105q30 33 72 53q39 19 88 19t88 -19q44 -21 72 -53q41 -44 56 -105q7 -27 7 -62 v-23h-336l1 -7q10 -47 41.5 -77t70.5 -30h1q41 3 80 36l11 9l83 -72l-15 -13q-23 -21 -40 -30h-1q-54 -32 -119 -33z"/>
<glyph glyph-name="ecircumflex" horiz-adv-x="509" unicode="ê" d="M398 526h-86l-56 70l-55 -70h-87l102 135h80zM257 364q-29 0 -56 -19t-43 -50l-4 -8h207l-4 8q-37 69 -100 69zM257 -11h-1q-44 0 -87 20q-37 16 -72 52q-53 58 -61 140q-2 18 -2 28q0 28 8 62q14 63 55 105q30 33 72 53q39 19 88 19t88 -19q44 -21 72 -53 q41 -44 56 -105q7 -27 7 -62v-23h-336l1 -7q10 -47 41.5 -77t70.5 -30h1q41 3 80 36l11 9l83 -72l-15 -13q-23 -21 -40 -30h-1q-54 -32 -119 -33z"/>
<glyph glyph-name="edieresis" horiz-adv-x="509" unicode="ë" d="M174 528q-23 0 -40 17t-17 42q0 23 17 40t40 17q24 0 41.5 -17t17.5 -40q0 -26 -17 -41l-1 -1q-15 -17 -41 -17zM337 528q-23 0 -42 17q-17 19 -17 42t17 40t42 17q24 0 41 -17t17 -40q0 -25 -17 -42t-41 -17zM257 364q-29 0 -56 -19t-43 -50l-4 -8h207l-4 8 q-37 69 -100 69zM257 -11h-1q-44 0 -87 20q-37 16 -72 52q-53 58 -61 140q-2 18 -2 28q0 28 8 62q14 63 55 105q30 33 72 53q39 19 88 19t88 -19q44 -21 72 -53q41 -44 56 -105q7 -27 7 -62v-23h-336l1 -7q10 -47 41.5 -77t70.5 -30h1q41 3 80 36l11 9l83 -72l-15 -13 q-23 -21 -40 -30h-1q-54 -32 -119 -33z"/>
<glyph glyph-name="igrave" horiz-adv-x="340" unicode="ì" d="M33 662h107l68 -140h-67zM245 0h-130v458h130v-458z"/>
<glyph glyph-name="iacute" horiz-adv-x="319" unicode="í" d="M196 662h108l-108 -140h-67zM223 0h-130v458h130v-458z"/>
<glyph glyph-name="icircumflex" horiz-adv-x="264" unicode="î" d="M274 526h-86l-56 70l-55 -70h-87l102 135h80zM198 0h-130v458h130v-458z"/>
<glyph glyph-name="idieresis" horiz-adv-x="258" unicode="ï" d="M47 528q-23 0 -40 17t-17 42q0 23 17 40t40 17q24 0 41.5 -17t17.5 -40q0 -26 -17 -41l-1 -1q-15 -17 -41 -17zM210 528q-23 0 -42 17q-17 19 -17 42t17 40t42 17q24 0 41 -17t17 -40q0 -25 -17 -42t-41 -17zM195 0h-130v458h130v-458z"/>
<glyph glyph-name="eth" horiz-adv-x="564" unicode="ð" d="M272 351q-52 0 -89 -37t-37 -89t37 -88.5t89 -36.5t89 36.5t37 88.5t-37 89t-89 37zM272 -12q-97 0 -169 70q-69 71 -69 167q0 98 69 169q71 69 169 69q19 0 28 -1l22 -2l-15 17q-1 2 -56 62l-6 6l-60 -57l-39 39l60 56l-7 7q-14 12 -26 26h-1l-22 22l78 80l22 -22 l10 -10l20 -20l7 -5l64 61l39 -38l-66 -63l6 -6q67 -69 103 -127q73 -116 76 -247v-1v-1q1 -4 1 -14q0 -97 -70 -167t-168 -70z"/>
<glyph glyph-name="ntilde" horiz-adv-x="543" unicode="ñ" d="M358 632l55 -36l-5 -8q-36 -55 -91 -55q-28 0 -65 26q-14 8 -21 8q-12 0 -29 -23l-5 -7l-59 38q19 30 38 43q23 19 56 19q21 0 40 -11q24 -15 41 -24q4 -2 6 -2q6 0 13 4.5t11.5 9.5t9 11t5.5 7zM371 0v245q0 40 -28 68t-69 28q-39 0 -68 -28.5t-29 -67.5v-245h-125v458 h125v-33q42 42 97 42q92 0 158 -64q65 -67 65 -158v-245h-126z"/>
<glyph glyph-name="ograve" horiz-adv-x="548" unicode="ò" d="M121 662h107l68 -140h-67zM273 354q-50 0 -86 -36.5t-36 -88.5t36 -88.5t86 -36.5q51 0 87 36.5t36 88.5t-36 88.5t-87 36.5zM273 -11q-97 0 -170 70q-70 73 -70 170q0 98 70 170q72 69 170 69q102 0 169 -69q71 -71 71 -170t-71 -170q-70 -70 -169 -70z"/>
<glyph glyph-name="oacute" horiz-adv-x="548" unicode="ó" d="M314 662h108l-108 -140h-67zM273 354q-50 0 -86 -36.5t-36 -88.5t36 -88.5t86 -36.5q51 0 87 36.5t36 88.5t-36 88.5t-87 36.5zM273 -11q-97 0 -170 70q-70 73 -70 170q0 98 70 170q72 69 170 69q102 0 169 -69q71 -71 71 -170t-71 -170q-70 -70 -169 -70z"/>
<glyph glyph-name="ocircumflex" horiz-adv-x="548" unicode="ô" d="M417 526h-86l-56 70l-55 -70h-87l102 135h80zM273 354q-50 0 -86 -36.5t-36 -88.5t36 -88.5t86 -36.5q51 0 87 36.5t36 88.5t-36 88.5t-87 36.5zM273 -11q-97 0 -170 70q-70 73 -70 170q0 98 70 170q72 69 170 69q102 0 169 -69q71 -71 71 -170t-71 -170 q-70 -70 -169 -70z"/>
<glyph glyph-name="otilde" horiz-adv-x="548" unicode="õ" d="M352 632l55 -36l-5 -8q-36 -55 -91 -55q-28 0 -65 26q-14 8 -21 8q-12 0 -29 -23l-5 -7l-59 38q19 30 38 43q23 19 56 19q21 0 40 -11q24 -15 41 -24q4 -2 6 -2q6 0 13 4.5t11.5 9.5t9 11t5.5 7zM273 354q-50 0 -86 -36.5t-36 -88.5t36 -88.5t86 -36.5q51 0 87 36.5 t36 88.5t-36 88.5t-87 36.5zM273 -11q-97 0 -170 70q-70 73 -70 170q0 98 70 170q72 69 170 69q102 0 169 -69q71 -71 71 -170t-71 -170q-70 -70 -169 -70z"/>
<glyph glyph-name="odieresis" horiz-adv-x="548" unicode="ö" d="M193 528q-23 0 -40 17t-17 42q0 23 17 40t40 17q24 0 41.5 -17t17.5 -40q0 -26 -17 -41l-1 -1q-15 -17 -41 -17zM356 528q-23 0 -42 17q-17 19 -17 42t17 40t42 17q24 0 41 -17t17 -40q0 -25 -17 -42t-41 -17zM273 354q-50 0 -86 -36.5t-36 -88.5t36 -88.5t86 -36.5 q51 0 87 36.5t36 88.5t-36 88.5t-87 36.5zM273 -11q-97 0 -170 70q-70 73 -70 170q0 98 70 170q72 69 170 69q102 0 169 -69q71 -71 71 -170t-71 -170q-70 -70 -169 -70z"/>
<glyph glyph-name="divide" horiz-adv-x="341" unicode="÷" d="M168 308q-33 0 -56 23t-23 55q0 34 23 55q23 23 56 23q32 0 55 -23t23 -55t-23 -55t-55 -23zM168 -10q-33 0 -56 23t-23 55q0 34 23 55q23 23 56 23q32 0 55 -23t23 -55t-23 -55t-55 -23zM327 171h-313v116h313v-116z"/>
<glyph glyph-name="oslash" horiz-adv-x="555" unicode="ø" d="M272 104q51 0 87 36.5t36 88.5q0 29 -13 55l-165 -166q25 -14 55 -14zM149 229q0 -25 12 -54l165 166q-28 13 -54 13q-51 0 -87 -36.5t-36 -88.5zM466 369q46 -61 46 -140q0 -99 -71 -170q-70 -70 -169 -70q-73 0 -139 44l-43 -43l-57 56l44 44q-45 64 -45 139 q0 98 70 170q69 69 170 69q76 0 137 -42l45 45l57 -57z"/>
<glyph glyph-name="ugrave" horiz-adv-x="527" unicode="ù" d="M106 662h107l68 -140h-67zM260 -11q-91 0 -151 60q-63 60 -63 149v260h126v-260q0 -35 25.5 -60t62.5 -25t63 25t26 60v260h126v-260q0 -87 -64 -149q-62 -60 -151 -60z"/>
<glyph glyph-name="uacute" horiz-adv-x="527" unicode="ú" d="M303 662h108l-108 -140h-67zM260 -11q-91 0 -151 60q-63 60 -63 149v260h126v-260q0 -35 25.5 -60t62.5 -25t63 25t26 60v260h126v-260q0 -87 -64 -149q-62 -60 -151 -60z"/>
<glyph glyph-name="ucircumflex" horiz-adv-x="527" unicode="û" d="M402 526h-86l-56 70l-55 -70h-87l102 135h80zM260 -11q-91 0 -151 60q-63 60 -63 149v260h126v-260q0 -35 25.5 -60t62.5 -25t63 25t26 60v260h126v-260q0 -87 -64 -149q-62 -60 -151 -60z"/>
<glyph glyph-name="udieresis" horiz-adv-x="527" unicode="ü" d="M178 528q-23 0 -40 17t-17 42q0 23 17 40t40 17q24 0 41.5 -17t17.5 -40q0 -26 -17 -41l-1 -1q-15 -17 -41 -17zM341 528q-23 0 -42 17q-17 19 -17 42t17 40t42 17q24 0 41 -17t17 -40q0 -25 -17 -42t-41 -17zM260 -11q-91 0 -151 60q-63 60 -63 149v260h126v-260 q0 -35 25.5 -60t62.5 -25t63 25t26 60v260h126v-260q0 -87 -64 -149q-62 -60 -151 -60z"/>
<glyph glyph-name="yacute" horiz-adv-x="546" unicode="ý" d="M321 662h108l-108 -140h-67zM229 -266h-131l109 265l-183 459h134l114 -285l116 285h133z"/>
<glyph glyph-name="thorn" horiz-adv-x="584" unicode="þ" d="M177 229q0 -49 35 -85t83 -36t83 36t35 85t-35 85t-83 36t-83 -36t-35 -85zM295 -9q-72 0 -113 40l-5 5v-302h-121v979h121v-295l5 4q49 45 113 45q100 0 169 -69q70 -72 70 -169t-70 -169q-71 -69 -169 -69z"/>
<glyph glyph-name="OE" horiz-adv-x="1040" unicode="Œ" d="M406 600q-98 0 -168 -70t-70 -169t70 -169t168 -70q81 0 144 49v380q-61 49 -144 49zM406 -10q-154 0 -263 108.5t-109 262.5q0 75 29 145q29 67 80 118t118 80q70 29 145 29t144 -29v9h470v-130h-335v-135h292v-134h-292v-182h327v-133h-462v20q-69 -29 -144 -29z"/>
<glyph glyph-name="oe" horiz-adv-x="873" unicode="œ" d="M620 357q-28 0 -54 -18t-42 -48l-2 -4h196l-2 4q-16 31 -42 48.5t-54 17.5zM271 349q-49 0 -83.5 -35t-34.5 -85t34.5 -85t83.5 -35t83.5 35t34.5 85t-34.5 85t-83.5 35zM620 -12h-1q-43 0 -88 20q-39 19 -71 52l-9 10l-11 -11q-70 -70 -169 -70q-97 0 -170 70 q-70 73 -70 170q0 98 70 170q71 69 170 69q100 0 169 -69l13 -15l7 9q29 32 71 53q39 19 89 19q49 0 88 -19q43 -21 71 -53q41 -44 56 -104q7 -27 7 -62q0 -17 -1 -26h-330l1 -3q9 -44 39.5 -73t68.5 -29q41 3 78 34l13 10l85 -74l-17 -15q-23 -21 -40 -30q-54 -32 -119 -33 z"/>
<glyph glyph-name="Scaron" horiz-adv-x="626" unicode="Š" d="M172 915h86l56 -70l55 70h87l-102 -135h-80zM332 -6q-32 0 -72 8q-114 23 -209 106l-19 17l88 100l19 -17q71 -62 147 -77h1q25 -5 45 -5q37 0 67 14q52 22 52 73q0 32 -34 53q-33 20 -93 31q-24 4 -77.5 18t-83.5 31q-46 28 -72 71q-25 43 -25 96q0 58 35 111 q34 44 88 70q55 26 119 26q17 0 53 -4q103 -19 188 -90l19 -16l-85 -103l-19 16q-80 65 -157 65q-33 0 -62 -13q-46 -21 -46 -61q0 -31 27 -49t94 -33q6 -1 22 -5q95 -18 137 -43q50 -26 78 -72q27 -44 27 -99q0 -68 -36 -119q-32 -44 -93 -74q-51 -26 -123 -26z"/>
<glyph glyph-name="scaron" horiz-adv-x="440" unicode="š" d="M78 661h86l56 -70l55 70h87l-102 -135h-80zM232 -4q-17 0 -47 5q-79 16 -134 65l-15 12l75 83l14 -13q52 -44 103 -44q25 0 41 8q22 9 22 30q0 26 -66 37q-77 16 -104 31q-32 18 -50 48t-18 67q0 39 24 74q19 27 60 48q33 16 80 16q12 0 32 -2q69 -11 124 -54l15 -12 l-71 -82l-14 11q-41 33 -83 33q-21 0 -36 -7q-20 -11 -20 -25q0 -11 12.5 -19.5t49.5 -16.5q75 -18 104 -30q32 -18 50 -42q22 -31 22 -75t-23 -76q-24 -34 -64 -53q-36 -17 -83 -17z"/>
<glyph glyph-name="Ydieresis" horiz-adv-x="681" unicode="Ÿ" d="M259 782q-23 0 -40 17t-17 42q0 23 17 40t40 17q24 0 41.5 -17t17.5 -40q0 -26 -17 -41l-1 -1q-15 -17 -41 -17zM422 782q-23 0 -42 17q-17 19 -17 42t17 40t42 17q24 0 41 -17t17 -40q0 -25 -17 -42t-41 -17zM408 0h-135v352l-257 360h164l161 -225l161 225h163 l-257 -360v-352z"/>
<glyph glyph-name="circumflex" horiz-adv-x="382" unicode="ˆ" d="M333 526h-86l-56 70l-55 -70h-87l102 135h80z"/>
<glyph glyph-name="tilde" horiz-adv-x="335" unicode="˜" d="M246 632l55 -36l-5 -8q-36 -55 -91 -55q-28 0 -65 26q-14 8 -21 8q-12 0 -29 -23l-5 -7l-59 38q19 30 38 43q23 19 56 19q21 0 40 -11q24 -15 41 -24q4 -2 6 -2q6 0 13 4.5t11.5 9.5t9 11t5.5 7z"/>
<glyph glyph-name="endash" horiz-adv-x="545" unicode="–" d="M495 169h-445v116h445v-116z"/>
<glyph glyph-name="emdash" horiz-adv-x="863" unicode="—" d="M813 169h-763v116h763v-116z"/>
<glyph glyph-name="quotesinglbase" horiz-adv-x="184" unicode="‚" d="M134 -174h-84v162h84v-162z"/>
<glyph glyph-name="dagger" horiz-adv-x="421" unicode="†" d="M272 1h-124v210h-98v124h98v123h124v-123h99v-124h-99v-210z"/>
<glyph glyph-name="ellipsis" horiz-adv-x="634" unicode="…" d="M511 -10q-33 0 -56 23t-23 55q0 34 23 55q23 23 56 23q32 0 55 -23t23 -55t-23 -55t-55 -23zM320 -10q-33 0 -56 23t-23 55q0 34 23 55q23 23 56 23q32 0 55 -23t23 -55t-23 -55t-55 -23zM124 -10q-33 0 -56 23t-23 55q0 34 23 55q23 23 56 23q32 0 55 -23t23 -55 t-23 -55t-55 -23z"/>
<glyph glyph-name="perthousand" horiz-adv-x="988" unicode="‰" d="M129 580q0 -20 13.5 -33.5t33.5 -13.5q19 0 32.5 14t13.5 33t-13.5 32.5t-32.5 13.5t-34 -13q-13 -15 -13 -33zM280 682q44 -42 44 -103q0 -60 -44 -102t-104 -42q-61 0 -105 42.5t-44 101.5q0 60 43.5 102.5t105.5 42.5q60 0 104 -42zM766 134q0 -20 14 -33.5t33 -13.5 t32.5 14t13.5 33t-13.5 33t-32.5 14q-21 0 -33 -14q-14 -14 -14 -33zM917 237q44 -44 44 -103t-44 -103q-44 -42 -104 -42q-62 0 -105.5 42.5t-43.5 102.5t43.5 102.5t105.5 42.5q60 0 104 -42zM458 134q0 -20 14 -33.5t33 -13.5t32.5 14t13.5 33t-13.5 33t-32.5 14 q-21 0 -33 -14q-14 -14 -14 -33zM609 237q44 -44 44 -103t-44 -103q-44 -42 -104 -42q-62 0 -105.5 42.5t-43.5 102.5t43.5 102.5t105.5 42.5q60 0 104 -42zM131 0l275 712h143l-274 -712h-144z"/>
<glyph glyph-name="fraction" horiz-adv-x="433" unicode="⁄" d="M149 0h-143l274 712h144z"/>
<glyph glyph-name="Euro" horiz-adv-x="645" unicode="€" d="M541 126l20 6l57 -120l-27 -9q-54 -16 -109 -16q-62 0 -121 21q-58 20 -106 56q-50 40 -81 87q-28 41 -45 91h-104v103h88v39h-88v94h104q38 113 135.5 183.5t217.5 70.5q54 0 110 -17l28 -8l-57 -120l-20 5q-30 8 -61 8q-64 0 -120.5 -33t-88.5 -89h180v-94h-196v-39 h196v-103h-180q32 -57 88.5 -90t120.5 -33q34 0 59 7z"/>
<glyph glyph-name="trademark" horiz-adv-x="324" unicode="™" d="M281 427h-42v57l-21 -27l-19 28v-58h-44v138h37l26 -36l26 36h37v-138zM117 427h-44v95h-30v43h104v-43h-30v-95z"/>
<glyph glyph-name="minus" horiz-adv-x="413" unicode="−" d="M363 171h-313v116h313v-116z"/>
</font>
</defs>
</svg>
